<svg width="22" height="20" viewBox="0 0 22 20" fill="none" xmlns="http://www.w3.org/2000/svg">
<path d="M11.6666 9.1665H6.66659M8.33325 12.4998H6.66659M13.3333 5.83317H6.66659M16.6666 8.74984V5.6665C16.6666 4.26637 16.6666 3.56631 16.3941 3.03153C16.1544 2.56112 15.772 2.17867 15.3016 1.93899C14.7668 1.6665 14.0667 1.6665 12.6666 1.6665H7.33325C5.93312 1.6665 5.23306 1.6665 4.69828 1.93899C4.22787 2.17867 3.84542 2.56112 3.60574 3.03153C3.33325 3.56631 3.33325 4.26637 3.33325 5.6665V14.3332C3.33325 15.7333 3.33325 16.4334 3.60574 16.9681C3.84542 17.4386 4.22787 17.821 4.69828 18.0607C5.23306 18.3332 5.93312 18.3332 7.33325 18.3332H9.58325M18.3333 18.3332L17.0833 17.0832M17.9166 14.9998C17.9166 16.6107 16.6107 17.9165 14.9999 17.9165C13.3891 17.9165 12.0833 16.6107 12.0833 14.9998C12.0833 13.389 13.3891 12.0832 14.9999 12.0832C16.6107 12.0832 17.9166 13.389 17.9166 14.9998Z" stroke="#717680" stroke-width="1.67" stroke-linecap="round" stroke-linejoin="round"/>
</svg>
