<svg width="297" height="226" viewBox="0 0 297 226" fill="none" xmlns="http://www.w3.org/2000/svg">
<path d="M7.99997 9C43.31 9 78.62 9 115 9C115.33 42.66 115.66 76.32 116 111C127.007 96.8793 127.007 96.8793 137.523 82.4727C140.195 78.6993 142.967 75.0041 145.75 71.3125C150.159 65.4623 154.533 59.5878 158.875 53.6875C159.458 52.8947 160.042 52.102 160.643 51.2852C162.429 48.8572 164.215 46.4287 166 44C168.374 40.7702 170.749 37.5411 173.125 34.3125C173.894 33.2649 173.894 33.2649 174.679 32.196C180.399 24.4228 186.208 16.7221 192 9C224.34 9 256.68 9 290 9C290 78.63 290 148.26 290 220C232.25 220 174.5 220 115 220C114.67 186.01 114.34 152.02 114 117C109.38 123.27 104.76 129.54 100 136C97.5058 139.338 95.0091 142.673 92.5 146C85.8539 154.839 79.2814 163.729 72.7339 172.641C69.8263 176.597 66.9128 180.548 64 184.5C62.845 186.068 61.6901 187.635 60.5351 189.203C58.086 192.527 55.6352 195.85 53.1836 199.172C52.5564 200.022 51.9293 200.872 51.2832 201.748C50.0909 203.364 48.8982 204.98 47.7051 206.596C47.1617 207.332 46.6184 208.069 46.0586 208.828C45.5251 209.528 44.9915 210.228 44.4419 210.949C42.9587 212.937 42.9587 212.937 42.0073 215.082C40.8604 217.327 40.0669 218.532 38 220C33.0761 220.892 28.2262 220.703 23.25 220.5C21.8841 220.473 20.5183 220.45 19.1523 220.43C9.20983 220.21 9.20983 220.21 7.99997 219C7.90212 216.294 7.87004 213.614 7.87972 210.907C7.87844 209.62 7.87844 209.62 7.87713 208.306C7.87547 205.407 7.881 202.508 7.88645 199.609C7.88673 197.54 7.88657 195.471 7.88601 193.402C7.88572 187.766 7.89162 182.13 7.89858 176.493C7.90481 170.61 7.90542 164.727 7.90661 158.844C7.90972 147.695 7.91793 136.547 7.92795 125.398C7.9412 110.338 7.94662 95.2786 7.95246 80.2191C7.96187 56.4794 7.98179 32.7397 7.99997 9Z" fill="#1C2E6B"/>
<path d="M8.00001 9C43.31 9 78.62 9 115 9C115.206 26.3869 115.413 43.7738 115.625 61.6875C115.716 67.1553 115.807 72.6231 115.901 78.2566C115.946 84.9899 115.946 84.9899 115.954 88.1529C115.97 90.3384 116.005 92.5238 116.056 94.7087C116.551 116.987 116.551 116.987 107.5 126.559C106.675 127.365 105.85 128.17 105 129C103.787 130.563 102.598 132.144 101.453 133.758C100.926 134.475 100.399 135.193 99.8555 135.932C99.3257 136.655 98.7959 137.379 98.25 138.125C97.0469 139.763 95.8438 141.401 94.6406 143.039C94.038 143.861 93.4354 144.682 92.8145 145.528C89.882 149.523 86.9407 153.511 84 157.5C80.5089 162.236 77.0189 166.973 73.5352 171.715C68.7597 178.211 63.9816 184.704 59.1367 191.148C58.4952 192.004 57.8536 192.86 57.1926 193.741C55.905 195.446 54.6054 197.141 53.2937 198.827C50.4179 202.557 47.8311 206.085 45.8516 210.371C42.1547 217.919 42.1547 217.919 38 220C28.6385 221.71 18.4152 221.208 9.00001 220C7.20449 218.204 7.87742 215.765 7.87093 213.375C7.87385 212.56 7.87676 211.746 7.87976 210.907C7.87848 209.62 7.87848 209.62 7.87717 208.306C7.87551 205.407 7.88104 202.508 7.88649 199.609C7.88677 197.54 7.88661 195.471 7.88605 193.402C7.88576 187.766 7.89166 182.13 7.89862 176.493C7.90485 170.61 7.90546 164.727 7.90664 158.844C7.90976 147.695 7.91797 136.547 7.92799 125.398C7.94124 110.338 7.94666 95.2786 7.9525 80.2191C7.96191 56.4794 7.98183 32.7397 8.00001 9Z" fill="#FF6C02"/>
<path d="M149 97C151.97 97 154.94 97 158 97C158.33 111.85 158.66 126.7 159 142C162.96 137.71 166.92 133.42 171 129C173.754 126.207 176.511 123.432 179.312 120.688C185.105 115.01 190.618 109.185 195.72 102.872C198.247 99.7803 199.847 98.1732 203.887 97.5664C206.628 97.5629 209.278 97.6899 212 98C207.529 103.3 202.888 108.398 198.125 113.438C197.121 114.506 197.121 114.506 196.098 115.596C195.094 116.66 195.094 116.66 194.07 117.746C193.079 118.8 193.079 118.8 192.067 119.875C190.638 121.344 189.171 122.776 187.675 124.176C186.563 125.22 186.563 125.22 185.43 126.285C184.749 126.904 184.068 127.523 183.367 128.16C181.78 129.887 181.78 129.887 182.11 132.004C183.1 134.225 184.232 135.799 185.809 137.652C186.386 138.34 186.963 139.028 187.558 139.736C188.178 140.463 188.799 141.189 189.438 141.938C190.72 143.466 192.002 144.996 193.281 146.527C193.914 147.284 194.547 148.04 195.199 148.82C198.512 152.831 201.653 156.968 204.801 161.109C207.433 164.569 210.121 167.983 212.82 171.391C214 173 214 173 214 174C209.99 175.157 207.006 175.238 203 174C198.395 170.169 195.005 164.998 191.546 160.155C189.698 157.579 187.771 155.071 185.826 152.567C184.644 151.043 183.48 149.504 182.316 147.965C179.648 144.549 176.847 141.268 174 138C162.957 146.37 162.957 146.37 157.781 158.672C157.437 163.81 157.611 168.869 158 174C155.03 174 152.06 174 149 174C149 148.59 149 123.18 149 97Z" fill="#F6F7F9"/>
<path d="M205 125C209.425 124.874 213.849 124.785 218.275 124.725C219.773 124.701 221.272 124.667 222.769 124.623C236.338 124.236 249.459 125.809 260.141 135.125C267.999 143.05 272.176 151.225 272.438 162.5C272.054 174.792 268.315 184.209 259.313 192.75C251.196 199.474 242.289 202.169 231.953 202.098C231.182 202.096 230.411 202.095 229.616 202.093C227.161 202.088 224.705 202.075 222.25 202.062C220.582 202.057 218.914 202.053 217.246 202.049C213.164 202.039 209.082 202.019 205 202C205 196.72 205 191.44 205 186C207.64 186 210.28 186 213 186C213 188.64 213 191.28 213 194C216.646 193.889 220.292 193.758 223.938 193.625C224.959 193.594 225.981 193.563 227.033 193.531C238.657 193.086 248.002 191.491 256.313 182.812C261.665 176.03 262.702 167.756 262.473 159.316C261.404 151.816 258.042 145.17 252.063 140.437C250.203 139.122 250.203 139.122 248 138C247.049 137.469 246.097 136.938 245.117 136.391C239.434 134.014 233.122 134.424 227.063 134.312C225.806 134.278 224.55 134.244 223.256 134.209C220.171 134.127 217.085 134.062 214 134C214 141.26 214 148.52 214 156C212.35 154.35 210.7 152.7 209 151C207.863 149.942 207.863 149.942 206.703 148.863C204.076 144.447 204.574 140.218 204.75 135.187C204.768 134.208 204.786 133.229 204.805 132.221C204.852 129.813 204.917 127.407 205 125Z" fill="#F5F6F8"/>
</svg>
