<svg width="160" height="160" viewBox="0 0 160 160" fill="none" xmlns="http://www.w3.org/2000/svg">
<rect width="160" height="160" rx="32" fill="#F8CA32"/>
<g clip-path="url(#clip0_2876_6817)">
<path d="M52.3135 45.9177H68.7402L78.8132 35.7715L88.8864 45.9177H105.623" stroke="white" stroke-width="8.11699"/>
<path d="M52.3135 113.964H68.7402L78.8132 124.11L88.8864 113.964H105.623" stroke="white" stroke-width="8.11699"/>
<path d="M113.907 53.4824V70.0286L123.98 80.1748L113.907 90.3212V107.18" stroke="white" stroke-width="8.11699"/>
<path d="M44.8035 53.4824V70.0286L34.7305 80.1748L44.8035 90.3212V107.18" stroke="white" stroke-width="8.11699"/>
<path d="M63.7812 57.3848H102.059V106.867" stroke="white" stroke-width="8.11699"/>
<path d="M94.4646 102.809H56.3423V53.3262" stroke="white" stroke-width="8.11699"/>
<path fill-rule="evenodd" clip-rule="evenodd" d="M89.909 75.1406C89.909 75.283 89.9646 75.4196 90.0645 75.5204L94.3759 79.8634L90.0645 84.2063C89.9652 84.3066 89.909 84.4435 89.909 84.5861V90.7276H83.8116C83.7414 90.7276 83.6719 90.742 83.6071 90.7686C83.5423 90.7958 83.4834 90.8357 83.4338 90.8854L79.123 95.2276L74.8115 90.8854C74.7112 90.7842 74.576 90.7276 74.4344 90.7276H68.3372V84.5861C68.3372 84.4435 68.2809 84.3066 68.1806 84.2063L63.8691 79.8634L68.1806 75.5204C68.2809 75.4201 68.3372 75.2832 68.3372 75.1406V68.9989H74.4344C74.5045 68.9989 74.5739 68.985 74.6386 68.9579C74.7033 68.9309 74.762 68.8912 74.8115 68.8412L79.123 64.499L83.4345 68.8412C83.5341 68.9423 83.67 68.9989 83.8116 68.9989H89.909V75.1406ZM79.8169 91.9946L79.362 92.4149C79.4118 92.3894 79.4586 92.3559 79.5 92.3137L79.8169 91.9946ZM78.8809 92.4131L78.4366 92.0027L78.7451 92.3137C78.7862 92.3553 78.832 92.3883 78.8809 92.4131ZM91.1686 80.5601L91.5829 80.1052C91.5571 80.1558 91.5238 80.2025 91.4831 80.2432L91.1686 80.5601ZM78.7451 67.413L78.5235 67.6363L79.065 67.2586C79.0147 67.2641 78.9653 67.2768 78.9183 67.2964C78.8535 67.3234 78.7947 67.363 78.7451 67.413Z" fill="white"/>
</g>
<defs>
<clipPath id="clip0_2876_6817">
<rect width="101" height="100" fill="white" transform="translate(29 30)"/>
</clipPath>
</defs>
</svg>
